<svg width="141" height="50" viewBox="0 0 141 50" fill="none" xmlns="http://www.w3.org/2000/svg">
<path d="M3.53553 28.5355C1.58291 26.5829 1.58291 23.4171 3.53553 21.4645L11.3636 13.6364L22.7272 25L11.3636 36.3636L3.53553 28.5355Z" fill="#D50037"/>
<path d="M13.6365 11.3638L21.4646 3.53568C23.4172 1.58306 26.583 1.58306 28.5356 3.53568L36.3637 11.3638L25.0001 22.7274L13.6365 11.3638Z" fill="#D50037"/>
<path d="M27.2729 25L38.6366 13.6364L46.4647 21.4645C48.4173 23.4171 48.4173 26.5829 46.4647 28.5355L38.6366 36.3636L27.2729 25Z" fill="#D50037"/>
<path d="M13.6365 38.6362L25.0001 27.2726L36.3637 38.6362L28.5356 46.4643C26.583 48.4169 23.4172 48.4169 21.4646 46.4643L13.6365 38.6362Z" fill="#D50037"/>
<path d="M53.224 38L64.912 21.08H69.472L72.088 38H67.192L66.784 35H60.304L58.288 38H53.224ZM62.656 31.376H66.4L65.8 26.552L62.656 31.376ZM81.4649 38.336C79.1129 38.336 77.2009 37.672 75.7289 36.344C74.2569 35 73.5209 33.216 73.5209 30.992C73.5209 29.312 73.9369 27.712 74.7689 26.192C75.6009 24.656 76.8329 23.384 78.4649 22.376C80.0969 21.368 81.9449 20.864 84.0089 20.864C85.6889 20.864 87.1129 21.24 88.2809 21.992C89.4649 22.744 90.3129 23.784 90.8249 25.112L86.7929 27.272C86.0889 25.832 84.9609 25.112 83.4089 25.112C82.0329 25.112 80.8489 25.664 79.8569 26.768C78.8809 27.872 78.3929 29.168 78.3929 30.656C78.3929 31.712 78.7049 32.552 79.3289 33.176C79.9529 33.8 80.7609 34.112 81.7529 34.112C83.0169 34.112 84.2169 33.544 85.3529 32.408L88.4969 35.192C86.6409 37.288 84.2969 38.336 81.4649 38.336ZM89.4464 38L93.9584 21.2H98.6384L96.8144 27.92L103.75 21.2H109.678L101.758 28.568L105.502 38H100.462L98.0384 31.52L95.1344 34.184L94.1264 38H89.4464ZM110.444 38L113.876 25.28H108.836L109.94 21.2H124.652L123.572 25.28H118.532L115.124 38H110.444ZM125.913 38L129.345 25.28H124.305L125.409 21.2H140.121L139.041 25.28H134.001L130.593 38H125.913Z" fill="#141615"/>
</svg>
