<svg width="24" height="24" viewBox="0 0 24 24" fill="none" xmlns="http://www.w3.org/2000/svg">
<path d="M20.3373 6.39972H14.9742C15.5392 5.7226 15.88 4.85193 15.88 3.90308C15.88 1.75085 14.1292 0 11.9771 0C9.82489 0 8.07404 1.75085 8.07404 3.90308C8.07404 4.85193 8.41479 5.7226 8.97986 6.39972H3.6167L0.28125 24H23.6728L20.3373 6.39972ZM11.9771 1.40625C13.3537 1.40625 14.4738 2.52631 14.4738 3.90308C14.4738 5.27966 13.3537 6.39972 11.9771 6.39972C10.6003 6.39972 9.48029 5.27966 9.48029 3.90308C9.48029 2.52631 10.6003 1.40625 11.9771 1.40625ZM10.5044 18.0225L8.75629 15.5378L8.17786 16.1017V18.0225H7.03088V12.4026H8.17786V14.6309L10.4094 12.4026H12.0055L9.57532 14.7497L11.985 18.0225H10.5044ZM16.9232 17.1846L16.8356 17.2546C16.483 17.5356 16.1129 17.7506 15.7357 17.8932C15.3545 18.0374 14.9579 18.1104 14.5563 18.1104C14.0143 18.1104 13.5137 17.9921 13.0682 17.7587C12.6132 17.5203 12.2648 17.1702 12.0324 16.7184C11.8052 16.277 11.69 15.7786 11.69 15.2373C11.69 14.7026 11.8037 14.196 12.0278 13.7314C12.2585 13.2534 12.5967 12.8925 13.0329 12.6588C13.459 12.4305 13.9537 12.3148 14.5036 12.3148C14.9044 12.3148 15.2736 12.3814 15.601 12.5125C15.9388 12.648 16.2094 12.8419 16.4052 13.0884C16.5959 13.3288 16.7417 13.6419 16.8386 14.0189L16.8953 14.2405L15.8395 14.5302L15.7751 14.3113C15.7062 14.0773 15.622 13.8946 15.5251 13.7681C15.4356 13.6511 15.3016 13.5542 15.1269 13.4804C14.9432 13.4028 14.7347 13.3634 14.5071 13.3634C14.2277 13.3634 13.9856 13.4052 13.7878 13.4877C13.5936 13.569 13.4363 13.6752 13.3206 13.8034C13.1995 13.9378 13.1041 14.0872 13.0371 14.2473C12.9186 14.5353 12.8582 14.8546 12.8582 15.195C12.8582 15.6152 12.9294 15.9677 13.0701 16.2426C13.2063 16.509 13.3984 16.701 13.6575 16.8294C13.9261 16.9627 14.2154 17.0303 14.5177 17.0303C14.7817 17.0303 15.0434 16.9786 15.2955 16.8766C15.5026 16.793 15.6683 16.7058 15.7903 16.617V16.0007H14.2745V14.9313L16.9232 14.9271V17.1846Z" fill="#D50037"/>
</svg>
