<svg width="88" height="19" viewBox="0 0 88 19" fill="none" xmlns="http://www.w3.org/2000/svg">
<path d="M0.224 18L11.912 1.08H16.472L19.088 18H14.192L13.784 15H7.304L5.288 18H0.224ZM9.656 11.376H13.4L12.8 6.552L9.656 11.376ZM28.4649 18.336C26.1129 18.336 24.2009 17.672 22.7289 16.344C21.2569 15 20.5209 13.216 20.5209 10.992C20.5209 9.312 20.9369 7.712 21.7689 6.192C22.6009 4.656 23.8329 3.384 25.4649 2.376C27.0969 1.368 28.9449 0.863999 31.0089 0.863999C32.6889 0.863999 34.1129 1.24 35.2809 1.992C36.4649 2.744 37.3129 3.784 37.8249 5.112L33.7929 7.272C33.0889 5.832 31.9609 5.112 30.4089 5.112C29.0329 5.112 27.8489 5.664 26.8569 6.768C25.8809 7.872 25.3929 9.168 25.3929 10.656C25.3929 11.712 25.7049 12.552 26.3289 13.176C26.9529 13.8 27.7609 14.112 28.7529 14.112C30.0169 14.112 31.2169 13.544 32.3529 12.408L35.4969 15.192C33.6409 17.288 31.2969 18.336 28.4649 18.336ZM36.4464 18L40.9584 1.2H45.6384L43.8144 7.92L50.7504 1.2H56.6784L48.7584 8.568L52.5024 18H47.4624L45.0384 11.52L42.1344 14.184L41.1264 18H36.4464ZM57.4443 18L60.8763 5.28H55.8363L56.9403 1.2H71.6523L70.5723 5.28H65.5323L62.1243 18H57.4443ZM72.9131 18L76.3451 5.28H71.3051L72.4091 1.2H87.1211L86.0411 5.28H81.0011L77.5931 18H72.9131Z" fill="white"/>
</svg>
