<svg width="1126" height="855" viewBox="0 0 1126 855" fill="none" xmlns="http://www.w3.org/2000/svg">
<path d="M1038.22 79L1049.91 62.08H1054.47L1057.09 79H1052.19L1051.78 76H1045.3L1043.29 79H1038.22ZM1047.66 72.376H1051.4L1050.8 67.552L1047.66 72.376ZM1066.46 79.336C1064.11 79.336 1062.2 78.672 1060.73 77.344C1059.26 76 1058.52 74.216 1058.52 71.992C1058.52 70.312 1058.94 68.712 1059.77 67.192C1060.6 65.656 1061.83 64.384 1063.46 63.376C1065.1 62.368 1066.94 61.864 1069.01 61.864C1070.69 61.864 1072.11 62.24 1073.28 62.992C1074.46 63.744 1075.31 64.784 1075.82 66.112L1071.79 68.272C1071.09 66.832 1069.96 66.112 1068.41 66.112C1067.03 66.112 1065.85 66.664 1064.86 67.768C1063.88 68.872 1063.39 70.168 1063.39 71.656C1063.39 72.712 1063.7 73.552 1064.33 74.176C1064.95 74.8 1065.76 75.112 1066.75 75.112C1068.02 75.112 1069.22 74.544 1070.35 73.408L1073.5 76.192C1071.64 78.288 1069.3 79.336 1066.46 79.336ZM1074.45 79L1078.96 62.2H1083.64L1081.81 68.92L1088.75 62.2H1094.68L1086.76 69.568L1090.5 79H1085.46L1083.04 72.52L1080.13 75.184L1079.13 79H1074.45ZM1095.44 79L1098.88 66.28H1093.84L1094.94 62.2H1109.65L1108.57 66.28H1103.53L1100.12 79H1095.44ZM1110.91 79L1114.35 66.28H1109.31L1110.41 62.2H1125.12L1124.04 66.28H1119L1115.59 79H1110.91Z" fill="white"/>
<path d="M167.071 520.071C163.166 516.165 163.166 509.834 167.071 505.928L273.636 399.363L387.272 513L273.636 626.636L167.071 520.071Z" fill="white" fill-opacity="0.5"/>
<path d="M296.365 376.636L402.93 270.071C406.835 266.166 413.167 266.166 417.072 270.071L523.637 376.636L410.001 490.272L296.365 376.636Z" fill="white" fill-opacity="0.5"/>
<path d="M432.728 513L546.364 399.363L652.929 505.928C656.834 509.834 656.834 516.165 652.929 520.071L546.364 626.636L432.728 513Z" fill="white" fill-opacity="0.5"/>
<path d="M296.365 649.364L410.001 535.728L523.637 649.364L417.072 755.929C413.167 759.835 406.835 759.835 402.93 755.929L296.365 649.364Z" fill="white" fill-opacity="0.5"/>
<path d="M-105.929 257.071C-109.834 253.165 -109.834 246.834 -105.929 242.928L0.63621 136.363L114.272 250L0.63621 363.636L-105.929 257.071Z" fill="white" fill-opacity="0.5"/>
<path d="M23.3647 113.636L129.93 7.07108C133.835 3.16584 140.167 3.16585 144.072 7.07109L250.637 113.636L137.001 227.272L23.3647 113.636Z" fill="white" fill-opacity="0.5"/>
<path d="M159.728 250L273.364 136.363L379.929 242.928C383.834 246.834 383.834 253.165 379.929 257.071L273.364 363.636L159.728 250Z" fill="white" fill-opacity="0.5"/>
<path d="M23.3647 386.364L137.001 272.728L250.637 386.364L144.072 492.929C140.167 496.835 133.835 496.835 129.93 492.929L23.3647 386.364Z" fill="white" fill-opacity="0.5"/>
<path d="M-105.929 788.071C-109.834 784.165 -109.834 777.834 -105.929 773.928L0.63621 667.363L114.272 781L0.63621 894.636L-105.929 788.071Z" fill="white" fill-opacity="0.5"/>
<path d="M23.3647 644.636L129.93 538.071C133.835 534.166 140.167 534.166 144.072 538.071L250.637 644.636L137.001 758.272L23.3647 644.636Z" fill="white" fill-opacity="0.5"/>
<path d="M159.728 781L273.364 667.363L379.929 773.928C383.834 777.834 383.834 784.165 379.929 788.071L273.364 894.636L159.728 781Z" fill="white" fill-opacity="0.5"/>
<path d="M23.3647 917.364L137.001 803.728L250.637 917.364L144.072 1023.93C140.167 1027.83 133.835 1027.83 129.93 1023.93L23.3647 917.364Z" fill="white" fill-opacity="0.5"/>
</svg>
