<svg width="500" height="110" viewBox="0 0 500 110" fill="none" xmlns="http://www.w3.org/2000/svg">
<g clip-path="url(#clip0)">
<path fill-rule="evenodd" clip-rule="evenodd" d="M89.4736 110H91.4315V0H89.4736V110ZM119.187 95.9488L120.437 94.4952C121.339 95.2286 122.287 95.6921 123.45 95.6921C124.384 95.6921 124.958 95.3071 124.958 94.7048V94.6838C124.958 94.1076 124.6 93.8117 122.9 93.4005C120.86 92.9081 119.584 92.345 119.584 90.4383V90.4121C119.584 88.6757 121.037 87.5129 123.066 87.5129C124.399 87.4906 125.7 87.9252 126.75 88.7438L125.645 90.289C124.768 89.6762 123.887 89.3148 123.026 89.3148C122.147 89.3148 121.682 89.7286 121.682 90.2262V90.2524C121.682 90.9176 122.121 91.1429 123.874 91.5881C125.918 92.0936 127.055 92.8112 127.055 94.4795V94.5057C127.055 96.4176 125.545 97.4914 123.41 97.4914C121.861 97.5043 120.359 96.955 119.187 95.9462V95.9488Z" fill="#FEFEFE"/>
<mask id="mask0" mask-type="alpha" maskUnits="userSpaceOnUse" x="0" y="0" width="500" height="113">
<path d="M0 112.619H499.216V0.801758H0V112.619Z" fill="white"/>
</mask>
<g mask="url(#mask0)">
<path fill-rule="evenodd" clip-rule="evenodd" d="M129.755 97.3629H131.861V87.6463H129.755V97.3629ZM135.058 87.6489H136.989L141.811 93.7722V87.6489H143.884V97.3655H142.092L137.129 91.0406V97.3629H135.058V87.6489ZM146.537 92.5308V92.5046C146.537 89.7415 148.676 87.4891 151.732 87.4891C153.608 87.4891 154.732 88.0863 155.661 88.982L154.318 90.4906C153.537 89.7965 152.747 89.367 151.718 89.367C149.989 89.367 148.739 90.7682 148.739 92.4784V92.5046C148.739 94.2096 149.958 95.6396 151.718 95.6396C152.882 95.6396 153.595 95.1839 154.384 94.4794L155.734 95.7994C154.705 96.8522 153.563 97.5201 151.65 97.5201C148.713 97.5201 146.537 95.3201 146.537 92.5308ZM158.168 87.6489H165.668V89.477H160.253V91.5591H165.018V93.3872H160.253V95.5348H165.732V97.3629H158.168V87.6489ZM174.355 89.6629L172.605 90.0898L172.166 88.4058L175 87.5834H176.439V97.3577H174.355V89.6629ZM184.613 90.8101V90.7839C184.613 89.8934 183.926 89.2387 182.803 89.2387C181.679 89.2387 181.047 89.8934 181.047 90.7839V90.8101C181.047 91.7058 181.734 92.3186 182.845 92.3186C183.974 92.3186 184.613 91.6639 184.613 90.8101ZM184.6 93.2798H184.587C184.089 93.746 183.395 94.0289 182.5 94.0289C180.355 94.0289 178.95 92.8556 178.95 90.9044V90.8782C178.95 88.9296 180.497 87.4891 182.734 87.4891C184.063 87.4891 184.847 87.8087 185.603 88.5315C186.316 89.2256 186.779 90.2915 186.779 92.1982V92.2244C186.779 95.3751 185.245 97.5253 182.447 97.5253C180.995 97.5253 180.024 97.0539 179.184 96.3756L180.295 94.812C181.021 95.3882 181.653 95.671 182.487 95.671C184.076 95.671 184.545 94.1703 184.6 93.2798ZM193.526 89.4194H188.763V87.6437H195.911V89.1941L191.445 97.3577H189.058L193.526 89.4194ZM201.489 93.5863V90.3989L198.705 93.5863H201.489ZM201.489 95.2546H196.584L196.224 93.7984L201.724 87.5834H203.503V93.5863H204.861V95.2546H203.503V97.3629H201.489V95.2546ZM38.7316 42.9784C32.9053 42.9784 28.3184 40.5479 28.421 37.5832C28.5342 34.6315 33.2974 32.1958 39.1237 32.1958C44.95 32.1958 49.5368 34.6315 49.4395 37.5858C49.3237 40.5453 44.5737 42.9784 38.7289 42.9784H38.7316ZM45.3342 53.2189C42.4474 51.4537 38.1421 51.2991 32.3342 58.3889C29.5579 61.7675 26.8842 66.4922 23.671 70.371C20.4526 74.242 16.7053 77.2617 11.7895 77.2617C5.52631 77.2617 2.53157 72.4977 1.14736 66.5472C0.447358 63.5667 0.147358 60.3008 0.0499898 57.1972C-0.0254929 54.4099 -0.00969499 51.6209 0.0973582 48.8346C0.164725 47.2901 0.448156 45.7624 0.939463 44.2958C3.47367 37.5779 10.8053 33.8406 17.3079 35.9358C22.3395 37.557 25.5974 42.177 25.3921 47.2946C25.2974 49.8875 25.1158 52.6034 24.9974 54.8558C24.8947 57.1082 24.8526 58.9048 25.0421 59.6434C25.3158 60.712 26.3947 60.6989 27.0131 60.1148C27.3158 59.8267 28.1184 58.9101 29.0842 57.8363C30.0263 56.7441 31.1447 55.4844 32.0658 54.4891C33.8947 52.4987 38.1263 48.4706 45.771 48.4706C54.1974 48.4706 60.7921 54.916 60.5079 62.8648C60.2263 70.8267 55.0447 77.2617 44.7526 77.2617C36.15 77.2617 31.4632 71.8534 33.8079 64.9837C35.9395 58.7372 44.571 56.9301 48.1921 58.0956C48.25 58.0484 48.2132 54.9684 45.3342 53.2137V53.2189ZM118.921 56.8044V56.6996C118.921 46.1003 127.132 37.4444 138.868 37.4444C146.084 37.4444 150.4 39.7491 153.979 43.1801L148.821 48.9682C145.824 46.3072 142.771 44.6651 138.821 44.6651C132.182 44.6651 127.4 50.042 127.4 56.6001V56.6996C127.4 63.2525 132.084 68.7315 138.821 68.7315C143.295 68.7315 146.026 66.9898 149.087 64.2791L154.247 69.347C150.297 73.3934 145.924 75.9522 138.558 75.9522C127.295 75.9522 118.921 67.5032 118.921 56.8044ZM280.611 38.0598H288.663V54.8532L304.671 38.0598H314.618L298.882 53.9365L315.303 75.3367H305.566L293.408 59.3082L288.663 64.0722V75.3367H280.611V38.0598ZM321.3 75.3367H329.408V38.0598H321.3V75.3367ZM407.153 56.8044V56.6996C407.153 50.1467 402.2 44.6651 395.258 44.6651C388.311 44.6651 383.463 50.042 383.463 56.6001V56.6996C383.463 63.2525 388.411 68.7315 395.358 68.7315C402.308 68.7315 407.153 63.3572 407.153 56.8044ZM374.987 56.8044V56.6996C374.987 46.1527 383.566 37.4444 395.358 37.4444C407.153 37.4444 415.629 45.9956 415.629 56.6001V56.6996C415.629 67.2465 407.05 75.9522 395.261 75.9522C383.463 75.9522 374.987 67.401 374.987 56.8044ZM417.94 38.0598H426.882L437.208 64.7846L447.524 38.0598H456.263L440.684 75.5908H433.516L417.94 38.0598ZM490.737 56.8044V56.6996C490.737 50.1467 485.79 44.6651 478.84 44.6651C471.892 44.6651 467.05 50.042 467.05 56.6001V56.6996C467.05 63.2525 471.997 68.7315 478.945 68.7315C485.892 68.7315 490.74 63.3572 490.74 56.8044H490.737ZM458.571 56.8044V56.6996C458.571 46.1527 467.15 37.4444 478.942 37.4444C490.74 37.4444 499.213 45.9956 499.213 56.6001V56.6996C499.213 67.2465 490.634 75.9522 478.84 75.9522C467.05 75.9522 458.571 67.401 458.571 56.8044ZM185.663 38.0598V53.0591H169.555V38.0598H161.497V75.3367H169.555V53.1691C169.59 55.0779 170.376 56.897 171.743 58.2361C173.11 59.5752 174.95 60.3277 176.868 60.3322H185.663V75.3394H193.768V38.0572H185.663V38.0598ZM370.147 38.0598H339.037C339.035 39.8866 339.76 41.6397 341.054 42.9356C342.347 44.2314 344.104 44.9644 345.94 44.9741H359.729L338.353 69.3941V75.3394H370.147V68.4251H348.779L370.147 43.9998V38.0598ZM257.511 56.236H248.668V45.1784H257.353C261.616 45.1784 264.247 47.072 264.247 50.6522V50.757C264.247 54.036 261.721 56.236 257.511 56.236ZM264.037 61.867C268.984 60.1777 272.411 56.3932 272.411 50.351V50.2463C272.411 46.8153 271.305 43.8951 269.2 41.847C266.668 39.3903 262.884 38.0625 258.037 38.0625H240.611V75.3394H248.666V63.2027H255.668L264.145 75.3394H273.624L264.037 61.867ZM211.511 68.3203V53.1796C211.538 55.0125 212.287 56.7615 213.595 58.0513C214.904 59.3411 216.669 60.0688 218.511 60.0782H230.053V53.067H211.511V45.0737H232.568V38.0625H203.5V75.3394H232.568V68.3203H211.511Z" fill="#FEFEFE"/>
</g>
</g>
<defs>
<clipPath id="clip0">
<rect width="500" height="110" fill="white"/>
</clipPath>
</defs>
</svg>
