<svg width="30" height="30" viewBox="0 0 30 30" fill="none" xmlns="http://www.w3.org/2000/svg">
<path d="M25.605 4.39488L23.49 6.50988C25.65 8.68488 27 11.6849 27 14.9999C27 21.6299 21.63 26.9999 15 26.9999C8.37 26.9999 3 21.6299 3 14.9999C3 8.87988 7.575 3.83988 13.5 3.10488V6.13488C9.24 6.85488 6 10.5449 6 14.9999C6 19.9649 10.035 23.9999 15 23.9999C19.965 23.9999 24 19.9649 24 14.9999C24 12.5099 22.995 10.2599 21.36 8.63988L19.245 10.7549C20.325 11.8499 21 13.3499 21 14.9999C21 18.3149 18.315 20.9999 15 20.9999C11.685 20.9999 9 18.3149 9 14.9999C9 12.2099 10.92 9.88488 13.5 9.20988V12.4199C12.6 12.9449 12 13.8899 12 14.9999C12 16.6499 13.35 17.9999 15 17.9999C16.65 17.9999 18 16.6499 18 14.9999C18 13.8899 17.4 12.9299 16.5 12.4199V-0.00012207H15C6.72 -0.00012207 0 6.71988 0 14.9999C0 23.2799 6.72 29.9999 15 29.9999C23.28 29.9999 30 23.2799 30 14.9999C30 10.8599 28.32 7.10988 25.605 4.39488Z" fill="#666666"/>
</svg>
