<svg width="36" height="26" viewBox="0 0 36 26" fill="none" xmlns="http://www.w3.org/2000/svg">
<path fill-rule="evenodd" clip-rule="evenodd" d="M23.0003 6.25238C19.522 6.25238 16.7835 4.84343 16.8456 3.12495C16.9126 1.41143 19.7566 0 23.235 0C26.7145 0 29.453 1.41143 29.3934 3.12495C29.3264 4.84343 26.4899 6.25362 23.0003 6.25362V6.25238ZM26.969 12.2138C25.2522 11.2035 22.6912 11.1144 19.2352 15.179C17.5842 17.1154 15.9927 19.8244 14.0835 22.0468C12.1656 24.2667 9.93606 26 7.01385 26C3.28847 26 1.50585 23.2688 0.682814 19.8566C0.266952 18.148 0.0869522 16.276 0.0298487 14.4981C-0.0334616 12.7152 0.0174349 11.0339 0.0584004 9.70295C0.0770211 8.97619 0.279366 7.83591 0.559918 7.10171C2.06695 3.25 6.42792 1.10686 10.2973 2.30905C13.2903 3.23762 15.2293 5.88714 15.1064 8.81895C15.0493 10.3071 14.9413 11.8647 14.8718 13.1548C14.8097 14.4461 14.7849 15.4762 14.8966 15.8984C15.0592 16.5125 15.7023 16.505 16.0697 16.1695C16.2497 16.0036 16.7276 15.4787 17.3012 14.8633C17.8623 14.2381 18.5276 13.5138 19.0763 12.9443C20.1638 11.8052 22.6813 9.49495 27.2297 9.49495C32.2412 9.49495 36.1639 13.1894 35.9939 17.7456C35.8288 22.3105 32.7464 26 26.6227 26C21.507 26 18.7201 22.8986 20.1129 18.9602C21.3803 15.3796 26.5159 14.3446 28.671 15.0119C28.7045 14.9847 28.6834 13.2191 26.9703 12.2138" fill="#D50037"/>
</svg>
