<svg width="28" height="30" viewBox="0 0 28 30" fill="none" xmlns="http://www.w3.org/2000/svg">
<path d="M24.7102 16.4041C24.7642 15.9541 24.8002 15.4861 24.8002 15.0001C24.8002 14.5141 24.7642 14.0461 24.6922 13.5961L27.7342 11.2201C28.0042 11.0041 28.0762 10.6081 27.9142 10.3021L25.0342 5.3161C24.8542 4.9921 24.4762 4.8841 24.1522 4.9921L20.5702 6.4321C19.8142 5.8561 19.0222 5.3881 18.1402 5.0281L17.6002 1.2121C17.5462 0.852098 17.2402 0.600098 16.8802 0.600098H11.1202C10.7602 0.600098 10.4722 0.852098 10.4182 1.2121L9.87816 5.0281C8.99616 5.3881 8.18616 5.8741 7.44816 6.4321L3.86616 4.9921C3.54216 4.8661 3.16416 4.9921 2.98416 5.3161L0.10416 10.3021C-0.0758401 10.6261 -0.00383984 11.0041 0.28416 11.2201L3.32616 13.5961C3.25416 14.0461 3.20016 14.5321 3.20016 15.0001C3.20016 15.4681 3.23616 15.9541 3.30816 16.4041L0.26616 18.7801C-0.00384027 18.9961 -0.0758401 19.3921 0.0861599 19.6981L2.96616 24.6841C3.14616 25.0081 3.52416 25.1161 3.84816 25.0081L7.43016 23.5681C8.18616 24.1441 8.97816 24.6121 9.86016 24.9721L10.4002 28.7881C10.4722 29.1481 10.7602 29.4001 11.1202 29.4001H16.8802C17.2402 29.4001 17.5462 29.1481 17.5822 28.7881L18.1222 24.9721C19.0042 24.6121 19.8142 24.1261 20.5522 23.5681L24.1342 25.0081C24.4582 25.1341 24.8362 25.0081 25.0162 24.6841L27.8962 19.6981C28.0762 19.3741 28.0042 18.9961 27.7162 18.7801L24.7102 16.4041ZM14.0002 20.4001C11.0302 20.4001 8.60016 17.9701 8.60016 15.0001C8.60016 12.0301 11.0302 9.6001 14.0002 9.6001C16.9702 9.6001 19.4002 12.0301 19.4002 15.0001C19.4002 17.9701 16.9702 20.4001 14.0002 20.4001Z" fill="#666666"/>
</svg>
