<svg width="28" height="30" viewBox="0 0 28 30" fill="none" xmlns="http://www.w3.org/2000/svg">
<path d="M24.7102 16.4043C24.7642 15.9543 24.8002 15.4863 24.8002 15.0003C24.8002 14.5143 24.7642 14.0463 24.6922 13.5963L27.7342 11.2203C28.0042 11.0043 28.0762 10.6083 27.9142 10.3023L25.0342 5.31634C24.8542 4.99234 24.4762 4.88434 24.1522 4.99234L20.5702 6.43234C19.8142 5.85634 19.0222 5.38834 18.1402 5.02834L17.6002 1.21234C17.5462 0.852342 17.2402 0.600342 16.8802 0.600342H11.1202C10.7602 0.600342 10.4722 0.852342 10.4182 1.21234L9.87816 5.02834C8.99616 5.38834 8.18616 5.87434 7.44816 6.43234L3.86616 4.99234C3.54216 4.86634 3.16416 4.99234 2.98416 5.31634L0.10416 10.3023C-0.0758401 10.6263 -0.00383984 11.0043 0.28416 11.2203L3.32616 13.5963C3.25416 14.0463 3.20016 14.5323 3.20016 15.0003C3.20016 15.4683 3.23616 15.9543 3.30816 16.4043L0.26616 18.7803C-0.00384027 18.9963 -0.0758401 19.3923 0.0861599 19.6983L2.96616 24.6843C3.14616 25.0083 3.52416 25.1163 3.84816 25.0083L7.43016 23.5683C8.18616 24.1443 8.97816 24.6123 9.86016 24.9723L10.4002 28.7883C10.4722 29.1483 10.7602 29.4003 11.1202 29.4003H16.8802C17.2402 29.4003 17.5462 29.1483 17.5822 28.7883L18.1222 24.9723C19.0042 24.6123 19.8142 24.1263 20.5522 23.5683L24.1342 25.0083C24.4582 25.1343 24.8362 25.0083 25.0162 24.6843L27.8962 19.6983C28.0762 19.3743 28.0042 18.9963 27.7162 18.7803L24.7102 16.4043ZM14.0002 20.4003C11.0302 20.4003 8.60016 17.9703 8.60016 15.0003C8.60016 12.0303 11.0302 9.60034 14.0002 9.60034C16.9702 9.60034 19.4002 12.0303 19.4002 15.0003C19.4002 17.9703 16.9702 20.4003 14.0002 20.4003Z" fill="#D50037"/>
</svg>
