<svg width="409" height="313" viewBox="0 0 409 313" fill="none" xmlns="http://www.w3.org/2000/svg">
<g filter="url(#filter0_di)">
<circle cx="105.505" cy="152.083" r="100.673" fill="white"/>
<circle cx="105.505" cy="152.083" r="100.673" fill="url(#paint0_linear)"/>
<circle cx="105.505" cy="152.083" r="100.673" fill="url(#paint1_linear)"/>
<circle cx="105.505" cy="152.083" r="100.173" stroke="#EBECF0"/>
</g>
<g filter="url(#filter1_d)">
<circle cx="36.2422" cy="124.7" r="36.2422" fill="white"/>
<circle cx="36.2422" cy="124.7" r="35.7422" stroke="#EBECF0"/>
</g>
<g filter="url(#filter2_d)">
<circle cx="175.305" cy="124.7" r="36.2422" fill="white"/>
<circle cx="175.305" cy="124.7" r="35.7422" stroke="#EBECF0"/>
</g>
<path d="M78.9275 140.002C78.9275 133.33 84.3362 127.921 91.0082 127.921H120.539C127.211 127.921 132.62 133.33 132.62 140.002V149.398C132.62 164.225 120.6 176.244 105.774 176.244C90.9469 176.244 78.9275 164.225 78.9275 149.398V140.002Z" fill="url(#paint2_linear)"/>
<mask id="mask0" mask-type="alpha" maskUnits="userSpaceOnUse" x="78" y="127" width="55" height="50">
<path d="M78.9275 140.002C78.9275 133.33 84.3362 127.921 91.0082 127.921H120.539C127.211 127.921 132.62 133.33 132.62 140.002V149.398C132.62 164.225 120.6 176.244 105.774 176.244C90.9469 176.244 78.9275 164.225 78.9275 149.398V140.002Z" fill="url(#paint3_linear)"/>
</mask>
<g mask="url(#mask0)">
<g filter="url(#filter3_di)">
<circle cx="105.774" cy="219.199" r="67.1152" transform="rotate(-52 105.774 219.199)" fill="white"/>
<circle cx="105.774" cy="219.199" r="67.1152" transform="rotate(-52 105.774 219.199)" fill="url(#paint4_linear)"/>
<circle cx="105.774" cy="219.199" r="67.1152" transform="rotate(-52 105.774 219.199)" fill="url(#paint5_linear)"/>
</g>
</g>
<circle cx="49.1283" cy="127.921" r="3.22153" fill="#2C313A"/>
<circle cx="165.103" cy="127.921" r="3.22153" fill="#2C313A"/>
<g filter="url(#filter4_di)">
<path d="M300.677 126.989L323.6 101.53L283.097 65.0609L299.341 47.2022C303.657 42.4088 302.464 33.4135 297.671 29.0975C292.878 24.7816 283.077 25.1686 278.761 29.9619L239.594 73.2795C229.236 84.7836 233.386 104.117 244.89 114.476L261.091 129.063C272.595 139.422 290.318 138.493 300.677 126.989Z" fill="white"/>
<path d="M300.677 126.989L323.6 101.53L283.097 65.0609L299.341 47.2022C303.657 42.4088 302.464 33.4135 297.671 29.0975C292.878 24.7816 283.077 25.1686 278.761 29.9619L239.594 73.2795C229.236 84.7836 233.386 104.117 244.89 114.476L261.091 129.063C272.595 139.422 290.318 138.493 300.677 126.989Z" fill="url(#paint6_linear)"/>
<path d="M300.677 126.989L323.6 101.53L283.097 65.0609L299.341 47.2022C303.657 42.4088 302.464 33.4135 297.671 29.0975C292.878 24.7816 283.077 25.1686 278.761 29.9619L239.594 73.2795C229.236 84.7836 233.386 104.117 244.89 114.476L261.091 129.063C272.595 139.422 290.318 138.493 300.677 126.989Z" fill="url(#paint7_linear)"/>
<path d="M282.763 65.4324L322.894 101.567L300.305 126.654C290.131 137.953 272.725 138.865 261.426 128.692L245.225 114.104C239.561 109.004 235.701 101.686 234.538 94.2301C233.374 86.7767 234.909 79.2299 239.966 73.614L279.132 30.2973L279.132 30.2965C281.174 28.0288 284.559 26.7658 288.059 26.6133C291.558 26.4607 295.064 27.4234 297.336 29.4691C299.625 31.5301 301.077 34.7355 301.425 38.0234C301.772 41.3115 301.007 44.6032 298.97 46.8666C298.97 46.867 298.97 46.8673 298.969 46.8677L282.727 64.7244L282.389 65.0962L282.763 65.4324Z" stroke="#EBECF0"/>
</g>
<g filter="url(#filter5_i)">
<rect x="258.161" y="90.3829" width="45.0559" height="19.5895" rx="9.79477" transform="rotate(-48 258.161 90.3829)" fill="white"/>
<rect x="258.161" y="90.3829" width="45.0559" height="19.5895" rx="9.79477" transform="rotate(-48 258.161 90.3829)" fill="url(#paint8_linear)"/>
</g>
<rect x="258.867" y="90.3459" width="44.0559" height="18.5895" rx="9.29477" transform="rotate(-48 258.867 90.3459)" stroke="#EBECF0"/>
<g filter="url(#filter6_i)">
<rect x="272.718" y="103.49" width="45.0559" height="19.5895" rx="9.79477" transform="rotate(-48 272.718 103.49)" fill="url(#paint9_linear)"/>
<rect x="272.718" y="103.49" width="45.0559" height="19.5895" rx="9.79477" transform="rotate(-48 272.718 103.49)" fill="url(#paint10_linear)"/>
</g>
<rect x="273.424" y="103.453" width="44.0559" height="18.5895" rx="9.29477" transform="rotate(-48 273.424 103.453)" stroke="#EBECF0"/>
<g filter="url(#filter7_i)">
<rect x="287.277" y="116.599" width="45.0559" height="19.5895" rx="9.79477" transform="rotate(-48 287.277 116.599)" fill="url(#paint11_linear)"/>
</g>
<rect x="287.983" y="116.562" width="44.0559" height="18.5895" rx="9.29477" transform="rotate(-48 287.983 116.562)" stroke="#EBECF0"/>
<defs>
<filter id="filter0_di" x="-0.167725" y="31.4102" width="286.346" height="281.346" filterUnits="userSpaceOnUse" color-interpolation-filters="sRGB">
<feFlood flood-opacity="0" result="BackgroundImageFix"/>
<feColorMatrix in="SourceAlpha" type="matrix" values="0 0 0 0 0 0 0 0 0 0 0 0 0 0 0 0 0 0 127 0"/>
<feOffset dx="40" dy="20"/>
<feGaussianBlur stdDeviation="20"/>
<feColorMatrix type="matrix" values="0 0 0 0 0.815686 0 0 0 0 0.854902 0 0 0 0 1 0 0 0 1 0"/>
<feBlend mode="normal" in2="BackgroundImageFix" result="effect1_dropShadow"/>
<feBlend mode="normal" in="SourceGraphic" in2="effect1_dropShadow" result="shape"/>
<feColorMatrix in="SourceAlpha" type="matrix" values="0 0 0 0 0 0 0 0 0 0 0 0 0 0 0 0 0 0 127 0" result="hardAlpha"/>
<feOffset dx="-5" dy="-10"/>
<feGaussianBlur stdDeviation="30"/>
<feComposite in2="hardAlpha" operator="arithmetic" k2="-1" k3="1"/>
<feColorMatrix type="matrix" values="0 0 0 0 0.816667 0 0 0 0 0.853333 0 0 0 0 1 0 0 0 1 0"/>
<feBlend mode="normal" in2="shape" result="effect2_innerShadow"/>
</filter>
<filter id="filter1_d" x="0" y="88.4578" width="77.4844" height="77.4844" filterUnits="userSpaceOnUse" color-interpolation-filters="sRGB">
<feFlood flood-opacity="0" result="BackgroundImageFix"/>
<feColorMatrix in="SourceAlpha" type="matrix" values="0 0 0 0 0 0 0 0 0 0 0 0 0 0 0 0 0 0 127 0"/>
<feOffset dx="3" dy="3"/>
<feGaussianBlur stdDeviation="1"/>
<feColorMatrix type="matrix" values="0 0 0 0 0.4 0 0 0 0 0.4 0 0 0 0 0.4 0 0 0 0.25 0"/>
<feBlend mode="normal" in2="BackgroundImageFix" result="effect1_dropShadow"/>
<feBlend mode="normal" in="SourceGraphic" in2="effect1_dropShadow" result="shape"/>
</filter>
<filter id="filter2_d" x="139.063" y="88.4578" width="77.4844" height="77.4844" filterUnits="userSpaceOnUse" color-interpolation-filters="sRGB">
<feFlood flood-opacity="0" result="BackgroundImageFix"/>
<feColorMatrix in="SourceAlpha" type="matrix" values="0 0 0 0 0 0 0 0 0 0 0 0 0 0 0 0 0 0 127 0"/>
<feOffset dx="3" dy="3"/>
<feGaussianBlur stdDeviation="1"/>
<feColorMatrix type="matrix" values="0 0 0 0 0.4 0 0 0 0 0.4 0 0 0 0 0.4 0 0 0 0.25 0"/>
<feBlend mode="normal" in2="BackgroundImageFix" result="effect1_dropShadow"/>
<feBlend mode="normal" in="SourceGraphic" in2="effect1_dropShadow" result="shape"/>
</filter>
<filter id="filter3_di" x="6.56616" y="114.991" width="201.415" height="206.415" filterUnits="userSpaceOnUse" color-interpolation-filters="sRGB">
<feFlood flood-opacity="0" result="BackgroundImageFix"/>
<feColorMatrix in="SourceAlpha" type="matrix" values="0 0 0 0 0 0 0 0 0 0 0 0 0 0 0 0 0 0 127 0"/>
<feOffset dx="4" dy="4"/>
<feGaussianBlur stdDeviation="2"/>
<feColorMatrix type="matrix" values="0 0 0 0 0 0 0 0 0 0 0 0 0 0 0 0 0 0 0.25 0"/>
<feBlend mode="normal" in2="BackgroundImageFix" result="effect1_dropShadow"/>
<feBlend mode="normal" in="SourceGraphic" in2="effect1_dropShadow" result="shape"/>
<feColorMatrix in="SourceAlpha" type="matrix" values="0 0 0 0 0 0 0 0 0 0 0 0 0 0 0 0 0 0 127 0" result="hardAlpha"/>
<feOffset dx="-5" dy="-10"/>
<feGaussianBlur stdDeviation="30"/>
<feComposite in2="hardAlpha" operator="arithmetic" k2="-1" k3="1"/>
<feColorMatrix type="matrix" values="0 0 0 0 0.816667 0 0 0 0 0.853333 0 0 0 0 1 0 0 0 1 0"/>
<feBlend mode="normal" in2="shape" result="effect2_innerShadow"/>
</filter>
<filter id="filter4_di" x="201.48" y="-0.00012207" width="206.528" height="207.819" filterUnits="userSpaceOnUse" color-interpolation-filters="sRGB">
<feFlood flood-opacity="0" result="BackgroundImageFix"/>
<feColorMatrix in="SourceAlpha" type="matrix" values="0 0 0 0 0 0 0 0 0 0 0 0 0 0 0 0 0 0 127 0"/>
<feOffset dx="20" dy="20"/>
<feGaussianBlur stdDeviation="20"/>
<feColorMatrix type="matrix" values="0 0 0 0 0.815686 0 0 0 0 0.854902 0 0 0 0 1 0 0 0 1 0"/>
<feBlend mode="normal" in2="BackgroundImageFix" result="effect1_dropShadow"/>
<feBlend mode="normal" in="SourceGraphic" in2="effect1_dropShadow" result="shape"/>
<feColorMatrix in="SourceAlpha" type="matrix" values="0 0 0 0 0 0 0 0 0 0 0 0 0 0 0 0 0 0 127 0" result="hardAlpha"/>
<feOffset dx="-5" dy="-10"/>
<feGaussianBlur stdDeviation="30"/>
<feComposite in2="hardAlpha" operator="arithmetic" k2="-1" k3="1"/>
<feColorMatrix type="matrix" values="0 0 0 0 0.816667 0 0 0 0 0.853333 0 0 0 0 1 0 0 0 1 0"/>
<feBlend mode="normal" in2="shape" result="effect2_innerShadow"/>
</filter>
<filter id="filter5_i" x="253.161" y="46.8999" width="49.7061" height="56.591" filterUnits="userSpaceOnUse" color-interpolation-filters="sRGB">
<feFlood flood-opacity="0" result="BackgroundImageFix"/>
<feBlend mode="normal" in="SourceGraphic" in2="BackgroundImageFix" result="shape"/>
<feColorMatrix in="SourceAlpha" type="matrix" values="0 0 0 0 0 0 0 0 0 0 0 0 0 0 0 0 0 0 127 0" result="hardAlpha"/>
<feOffset dx="-5" dy="-10"/>
<feGaussianBlur stdDeviation="30"/>
<feComposite in2="hardAlpha" operator="arithmetic" k2="-1" k3="1"/>
<feColorMatrix type="matrix" values="0 0 0 0 0.816667 0 0 0 0 0.853333 0 0 0 0 1 0 0 0 1 0"/>
<feBlend mode="normal" in2="shape" result="effect1_innerShadow"/>
</filter>
<filter id="filter6_i" x="267.718" y="60.0067" width="49.7061" height="56.591" filterUnits="userSpaceOnUse" color-interpolation-filters="sRGB">
<feFlood flood-opacity="0" result="BackgroundImageFix"/>
<feBlend mode="normal" in="SourceGraphic" in2="BackgroundImageFix" result="shape"/>
<feColorMatrix in="SourceAlpha" type="matrix" values="0 0 0 0 0 0 0 0 0 0 0 0 0 0 0 0 0 0 127 0" result="hardAlpha"/>
<feOffset dx="-5" dy="-10"/>
<feGaussianBlur stdDeviation="30"/>
<feComposite in2="hardAlpha" operator="arithmetic" k2="-1" k3="1"/>
<feColorMatrix type="matrix" values="0 0 0 0 0.816667 0 0 0 0 0.853333 0 0 0 0 1 0 0 0 1 0"/>
<feBlend mode="normal" in2="shape" result="effect1_innerShadow"/>
</filter>
<filter id="filter7_i" x="282.277" y="73.1161" width="49.7061" height="56.591" filterUnits="userSpaceOnUse" color-interpolation-filters="sRGB">
<feFlood flood-opacity="0" result="BackgroundImageFix"/>
<feBlend mode="normal" in="SourceGraphic" in2="BackgroundImageFix" result="shape"/>
<feColorMatrix in="SourceAlpha" type="matrix" values="0 0 0 0 0 0 0 0 0 0 0 0 0 0 0 0 0 0 127 0" result="hardAlpha"/>
<feOffset dx="-5" dy="-10"/>
<feGaussianBlur stdDeviation="30"/>
<feComposite in2="hardAlpha" operator="arithmetic" k2="-1" k3="1"/>
<feColorMatrix type="matrix" values="0 0 0 0 0.816667 0 0 0 0 0.853333 0 0 0 0 1 0 0 0 1 0"/>
<feBlend mode="normal" in2="shape" result="effect1_innerShadow"/>
</filter>
<linearGradient id="paint0_linear" x1="185.641" y1="299.871" x2="-88.9948" y2="228.997" gradientUnits="userSpaceOnUse">
<stop stop-color="#808080" stop-opacity="0.38"/>
<stop offset="1" stop-color="#EBEBEB" stop-opacity="0.2"/>
</linearGradient>
<linearGradient id="paint1_linear" x1="48.3229" y1="89.2631" x2="116.378" y2="161.748" gradientUnits="userSpaceOnUse">
<stop stop-color="white"/>
<stop offset="1" stop-color="white" stop-opacity="0"/>
</linearGradient>
<linearGradient id="paint2_linear" x1="105.774" y1="127.921" x2="105.774" y2="158.794" gradientUnits="userSpaceOnUse">
<stop stop-color="#090909" stop-opacity="0.58"/>
<stop offset="1" stop-color="#C4C4C4" stop-opacity="0.39"/>
</linearGradient>
<linearGradient id="paint3_linear" x1="105.774" y1="127.921" x2="116.244" y2="152.083" gradientUnits="userSpaceOnUse">
<stop stop-color="#7C7C7C" stop-opacity="0.37"/>
<stop offset="1" stop-color="#C4C4C4"/>
</linearGradient>
<linearGradient id="paint4_linear" x1="159.198" y1="317.724" x2="-23.8927" y2="270.475" gradientUnits="userSpaceOnUse">
<stop stop-color="#C2C2C2" stop-opacity="0.69"/>
<stop offset="1" stop-color="#B2B9D4" stop-opacity="0.69"/>
</linearGradient>
<linearGradient id="paint5_linear" x1="67.6524" y1="177.319" x2="113.022" y2="225.642" gradientUnits="userSpaceOnUse">
<stop stop-color="white"/>
<stop offset="1" stop-color="white" stop-opacity="0"/>
</linearGradient>
<linearGradient id="paint6_linear" x1="340.004" y1="116.822" x2="171.34" y2="57.1879" gradientUnits="userSpaceOnUse">
<stop stop-color="#808080" stop-opacity="0.38"/>
<stop offset="0.999605" stop-color="#EBEBEB" stop-opacity="0.8"/>
</linearGradient>
<linearGradient id="paint7_linear" x1="250.355" y1="88.3907" x2="293.478" y2="94.1264" gradientUnits="userSpaceOnUse">
<stop stop-color="white"/>
<stop offset="1" stop-color="white" stop-opacity="0"/>
</linearGradient>
<linearGradient id="paint8_linear" x1="252.366" y1="111.931" x2="297.505" y2="116.631" gradientUnits="userSpaceOnUse">
<stop offset="0.318958" stop-color="#808080" stop-opacity="0.38"/>
<stop offset="1" stop-color="#EBEBEB" stop-opacity="0.2"/>
</linearGradient>
<linearGradient id="paint9_linear" x1="313.178" y1="127.663" x2="264.706" y2="98.8926" gradientUnits="userSpaceOnUse">
<stop stop-color="#808080" stop-opacity="0.38"/>
<stop offset="1" stop-color="#EBEBEB" stop-opacity="0.2"/>
</linearGradient>
<linearGradient id="paint10_linear" x1="282.45" y1="107.173" x2="287.093" y2="118.546" gradientUnits="userSpaceOnUse">
<stop stop-color="white"/>
<stop offset="1" stop-color="white" stop-opacity="0"/>
</linearGradient>
<linearGradient id="paint11_linear" x1="285.105" y1="133.514" x2="322.379" y2="141.647" gradientUnits="userSpaceOnUse">
<stop stop-color="#808080" stop-opacity="0.6"/>
<stop offset="1" stop-color="#EBEBEB" stop-opacity="0.3"/>
</linearGradient>
</defs>
</svg>
